<?xml version="1.0" encoding="UTF-8"?>
<svg version="1.1" xmlns="http://www.w3.org/2000/svg" width="500" height="500">
<path d="M0 0 C0 0.66 0 1.32 0 2 C1.3921875 2.2165625 1.3921875 2.2165625 2.8125 2.4375 C6 3 6 3 9 4 C9 4.66 9 5.32 9 6 C9.99 6 10.98 6 12 6 C12 6.66 12 7.32 12 8 C13.65 8.66 15.3 9.32 17 10 C17 10.66 17 11.32 17 12 C17.99 12 18.98 12 20 12 C20 12.66 20 13.32 20 14 C20.66 14 21.32 14 22 14 C22.99 16.475 22.99 16.475 24 19 C24.66 19 25.32 19 26 19 C27.4375 20.9765625 27.4375 20.9765625 29 23.625 C29.515625 24.48351562 30.03125 25.34203125 30.5625 26.2265625 C32.04761034 29.09185691 33.05982783 31.9173201 34 35 C35.14662109 34.98646484 35.14662109 34.98646484 36.31640625 34.97265625 C46.24031382 35.24732517 53.4051436 38.44698478 62 43 C62 43.66 62 44.32 62 45 C62.556875 45.20625 63.11375 45.4125 63.6875 45.625 C66.97012371 47.57683032 68.70673246 49.94230994 71 53 C71 53.66 71 54.32 71 55 C71.66 55 72.32 55 73 55 C79.84983223 67.10137028 80.53132281 80.90371083 77.75390625 94.40234375 C75.71763228 101.41852091 71.40657897 108.06907314 66 113 C65.34 113 64.68 113 64 113 C64 113.66 64 114.32 64 115 C53.3945754 123.81330424 40.62615447 126.39689169 27.14404297 126.13525391 C26.2159935 126.12579239 25.28794403 126.11633087 24.33177185 126.10658264 C21.30169527 126.07323479 18.27205659 126.02503192 15.2421875 125.9765625 C13.12656762 125.95036126 11.01093595 125.92509705 8.89529419 125.90072632 C3.35503084 125.83440956 -2.1849813 125.75544579 -7.72503662 125.67376709 C-13.38951044 125.59251918 -19.05413062 125.52334369 -24.71875 125.453125 C-35.81267533 125.31383873 -46.90637264 125.16117924 -58 125 C-56.54953102 121.96299479 -55.1231887 119.90097717 -52.6875 117.5625 C-52.06875 116.964375 -51.45 116.36625 -50.8125 115.75 C-50.214375 115.1725 -49.61625 114.595 -49 114 C-48.06119817 113.02208143 -47.12351459 112.04308671 -46.1875 111.0625 C-44 109 -44 109 -42 109 C-42 108.34 -42 107.68 -42 107 C-41.34 107 -40.68 107 -40 107 C-39.34 104.03 -38.68 101.06 -38 98 C-36.700625 98.433125 -35.40125 98.86625 -34.0625 99.3125 C-33.2375 99.58320313 -32.4125 99.85390625 -31.5625 100.1328125 C-29.94731983 100.67941311 -28.3410784 101.25395937 -26.75 101.8671875 C-16.44377193 105.73202303 -8.15060003 104.12708456 1.6796875 99.828125 C6.26597139 97.67456561 9.00315081 96.12723968 12 92 C12.66 92 13.32 92 14 92 C14 91.34 14 90.68 14 90 C14.66 90 15.32 90 16 90 C16.4021875 88.700625 16.4021875 88.700625 16.8125 87.375 C18 84 18 84 19.5625 81 C23.1265134 73.56205899 23.04805005 63.93677809 20.74609375 56.0625 C17.26010683 46.42584506 12.15397546 38.41911571 2.8125 33.625 C1.55296894 33.05754811 0.28123371 32.51658525 -1 32 C-2.08667969 31.46632813 -2.08667969 31.46632813 -3.1953125 30.921875 C-11.68389667 28.13175541 -23.7357356 28.71310347 -31.74609375 32.5859375 C-39.44140724 37.23911618 -39.44140724 37.23911618 -45 44 C-45.66 44 -46.32 44 -47 44 C-47.20496094 44.78246094 -47.40992188 45.56492188 -47.62109375 46.37109375 C-47.89050781 47.38300781 -48.15992188 48.39492187 -48.4375 49.4375 C-48.70433594 50.44683594 -48.97117187 51.45617187 -49.24609375 52.49609375 C-50 55 -50 55 -51 56 C-52.08750921 63.99703739 -52.39890512 71.26849688 -50 79 C-49.62496403 80.35415671 -49.24996145 81.70832266 -48.875 83.0625 C-48.58625 84.031875 -48.2975 85.00125 -48 86 C-49.62249941 86.83819158 -51.24808497 87.6704116 -52.875 88.5 C-54.23238281 89.19609375 -54.23238281 89.19609375 -55.6171875 89.90625 C-58 91 -58 91 -60 91 C-60.38285156 91.86963379 -60.38285156 91.86963379 -60.7734375 92.75683594 C-62.12584777 95.23015312 -63.63732524 96.89602109 -65.625 98.890625 C-66.68460938 99.95410156 -66.68460938 99.95410156 -67.765625 101.0390625 C-68.50296875 101.76867187 -69.2403125 102.49828125 -70 103.25 C-70.73734375 103.99507813 -71.4746875 104.74015625 -72.234375 105.5078125 C-72.94078125 106.21164062 -73.6471875 106.91546875 -74.375 107.640625 C-75.02210938 108.28547852 -75.66921875 108.93033203 -76.3359375 109.59472656 C-78 111 -78 111 -80 111 C-80.268125 111.86625 -80.53625 112.7325 -80.8125 113.625 C-81.97111987 116.91791964 -83.38209839 119.91127875 -85 123 C-94.55864269 121.42642309 -102.66053445 115.27215611 -108.7265625 107.90234375 C-116.45403993 97.11052183 -117.93392566 84.29170216 -116.4375 71.3125 C-115.29565129 64.92431939 -112.79981796 60.20224454 -109 55 C-108.59652344 54.42636719 -108.19304687 53.85273438 -107.77734375 53.26171875 C-101.86097124 45.50024023 -93.12412626 40.37179777 -83.5859375 38.53515625 C-81.73079894 38.29588926 -79.86539401 38.13817733 -78 38 C-77.79697266 37.10861328 -77.79697266 37.10861328 -77.58984375 36.19921875 C-75.7209105 29.00326619 -72.61962075 22.85523015 -68 17 C-67.34 17 -66.68 17 -66 17 C-65.34 15.68 -64.68 14.36 -64 13 C-63.34 13 -62.68 13 -62 13 C-61.67 12.01 -61.34 11.02 -61 10 C-58.4375 8.8125 -58.4375 8.8125 -56 8 C-56 7.34 -56 6.68 -56 6 C-38.58172747 -3.69774092 -19.12837747 -6.41430622 0 0 Z " fill="#F7F6F6" transform="translate(269,182)"/>
<path d="M0 0 C4.60680909 4.87879782 7.4643954 9.73818658 9.8046875 15.9921875 C10.2996875 16.9821875 10.2996875 16.9821875 10.8046875 17.9921875 C11.46563473 26.75786474 11.49971948 34.33724405 6.8046875 41.9921875 C6.15113281 43.14654297 6.15113281 43.14654297 5.484375 44.32421875 C0.16239425 53.09240015 -6.41605761 57.36923911 -16.1796875 60.30078125 C-25.64103362 62.4700277 -34.79619939 60.82309278 -43.0703125 55.7421875 C-45.95780315 53.73174603 -45.95780315 53.73174603 -48.6328125 54.2421875 C-49.1484375 54.4896875 -49.6640625 54.7371875 -50.1953125 54.9921875 C-50.1128125 55.8584375 -50.0303125 56.7246875 -49.9453125 57.6171875 C-50.3072721 62.50364206 -52.68551399 65.25011229 -55.8203125 68.8671875 C-57.1953125 69.9921875 -57.1953125 69.9921875 -59.1953125 69.9921875 C-59.1953125 70.6521875 -59.1953125 71.3121875 -59.1953125 71.9921875 C-59.8553125 71.9921875 -60.5153125 71.9921875 -61.1953125 71.9921875 C-61.1953125 72.6521875 -61.1953125 73.3121875 -61.1953125 73.9921875 C-61.8553125 73.9921875 -62.5153125 73.9921875 -63.1953125 73.9921875 C-63.1953125 74.6521875 -63.1953125 75.3121875 -63.1953125 75.9921875 C-63.8553125 75.9921875 -64.5153125 75.9921875 -65.1953125 75.9921875 C-65.1953125 76.6521875 -65.1953125 77.3121875 -65.1953125 77.9921875 C-65.8553125 77.9921875 -66.5153125 77.9921875 -67.1953125 77.9921875 C-67.1953125 78.6521875 -67.1953125 79.3121875 -67.1953125 79.9921875 C-67.8553125 79.9921875 -68.5153125 79.9921875 -69.1953125 79.9921875 C-69.5253125 80.9821875 -69.8553125 81.9721875 -70.1953125 82.9921875 C-70.8346875 83.5696875 -71.4740625 84.1471875 -72.1328125 84.7421875 C-74.9031192 87.76434026 -75.53217898 89.94707305 -76.1953125 93.9921875 C-75.78296084 97.07500708 -75.07407961 100.01113906 -74.1953125 102.9921875 C-80.91199973 102.1526016 -84.32621498 99.87436675 -88.6171875 94.62890625 C-91.25982271 90.21361227 -91.69846454 86.06182548 -91.1953125 80.9921875 C-90.45490768 78.35506662 -89.5370559 76.40732563 -88.1953125 73.9921875 C-87.5353125 73.9921875 -86.8753125 73.9921875 -86.1953125 73.9921875 C-85.94394531 73.41339844 -85.69257813 72.83460938 -85.43359375 72.23828125 C-84.03938336 69.70935073 -82.45740892 68.0578829 -80.3828125 66.0546875 C-79.66738281 65.35730469 -78.95195312 64.65992188 -78.21484375 63.94140625 C-77.54839844 63.29816406 -76.88195312 62.65492188 -76.1953125 61.9921875 C-75.3290625 61.1259375 -74.4628125 60.2596875 -73.5703125 59.3671875 C-72.7865625 58.5834375 -72.0028125 57.7996875 -71.1953125 56.9921875 C-70.69 56.45207031 -70.1846875 55.91195312 -69.6640625 55.35546875 C-68.2293385 53.84689867 -66.71618058 52.41386853 -65.1953125 50.9921875 C-64.2053125 50.9921875 -63.2153125 50.9921875 -62.1953125 50.9921875 C-62.1953125 50.3321875 -62.1953125 49.6721875 -62.1953125 48.9921875 C-60.2153125 48.9921875 -58.2353125 48.9921875 -56.1953125 48.9921875 C-54.97535579 47.27473939 -54.97535579 47.27473939 -54.1953125 44.9921875 C-54.78554774 42.48329621 -54.78554774 42.48329621 -56.0078125 39.9921875 C-60.53423214 29.85795104 -60.11923281 20.38903146 -56.1953125 9.9921875 C-54.7659516 7.14695023 -53.28937461 4.40416003 -51.1953125 1.9921875 C-50.5353125 1.9921875 -49.8753125 1.9921875 -49.1953125 1.9921875 C-49.1953125 1.3321875 -49.1953125 0.6721875 -49.1953125 -0.0078125 C-46.96484375 -1.6640625 -46.96484375 -1.6640625 -44.0078125 -3.5078125 C-43.04488281 -4.11625 -42.08195312 -4.7246875 -41.08984375 -5.3515625 C-27.63287583 -13.05163591 -11.36703236 -10.39618262 0 0 Z M-38.1953125 4.9921875 C-38.1953125 5.6521875 -38.1953125 6.3121875 -38.1953125 6.9921875 C-40.1753125 7.9821875 -40.1753125 7.9821875 -42.1953125 8.9921875 C-42.1953125 9.6521875 -42.1953125 10.3121875 -42.1953125 10.9921875 C-42.8553125 10.9921875 -43.5153125 10.9921875 -44.1953125 10.9921875 C-48.28495769 18.38641206 -49.68643194 25.1395437 -47.5703125 33.4453125 C-45.01506594 40.15283473 -40.32734095 44.28310925 -34.42578125 48.15234375 C-28.19114852 50.49988497 -19.32136198 50.27581144 -13.1796875 47.75390625 C-9.60885457 45.43286485 -7.56479554 44.10063662 -6.1953125 39.9921875 C-5.5353125 39.9921875 -4.8753125 39.9921875 -4.1953125 39.9921875 C-4.1953125 39.0021875 -4.1953125 38.0121875 -4.1953125 36.9921875 C-3.5353125 36.9921875 -2.8753125 36.9921875 -2.1953125 36.9921875 C0.48727934 29.27973595 1.03284153 21.65905332 -2.1953125 13.9921875 C-2.8553125 13.9921875 -3.5153125 13.9921875 -4.1953125 13.9921875 C-4.1953125 13.0021875 -4.1953125 12.0121875 -4.1953125 10.9921875 C-4.8553125 10.9921875 -5.5153125 10.9921875 -6.1953125 10.9921875 C-6.8553125 9.6721875 -7.5153125 8.3521875 -8.1953125 6.9921875 C-8.8553125 6.9921875 -9.5153125 6.9921875 -10.1953125 6.9921875 C-10.1953125 6.3321875 -10.1953125 5.6721875 -10.1953125 4.9921875 C-20.63417613 -0.53572137 -27.59716301 0.03605914 -38.1953125 4.9921875 Z " fill="#E9E8E8" transform="translate(278.1953125,223.0078125)"/>
<path d="M0 0 C0.33 0.99 0.66 1.98 1 3 C0.34 3 -0.32 3 -1 3 C-1.268125 3.598125 -1.53625 4.19625 -1.8125 4.8125 C-3.03854802 7.07100952 -3.93534581 8.47062652 -6 10 C-8.6875 10.1875 -8.6875 10.1875 -11 10 C-10.443125 9.608125 -9.88625 9.21625 -9.3125 8.8125 C-6.84937133 6.96406897 -6.84937133 6.96406897 -4.375 4.3125 C-2 2 -2 2 0 2 C0 1.34 0 0.68 0 0 Z " fill="#B1AEB0" transform="translate(283,272)"/>
<path d="M0 0 C0.33 0.99 0.66 1.98 1 3 C-0.8125 5 -0.8125 5 -3 7 C-3.99 7 -4.98 7 -6 7 C-5.67 6.01 -5.34 5.02 -5 4 C-2.4375 2.8125 -2.4375 2.8125 0 2 C0 1.34 0 0.68 0 0 Z " fill="#BBB9B9" transform="translate(213,188)"/>
<path d="M0 0 C0 0.99 0 1.98 0 3 C-2.64 2.34 -5.28 1.68 -8 1 C-8 0.67 -8 0.34 -8 0 C-4.71303767 -0.79953138 -3.28976808 -1.09658936 0 0 Z " fill="#7E7D7D" transform="translate(204,323)"/>
<path d="M0 0 C0 3 0 3 -1.3125 4.38671875 C-2.875 5.59114583 -4.4375 6.79557292 -6 8 C-6.66 7.67 -7.32 7.34 -8 7 C-5.36 4.69 -2.72 2.38 0 0 Z " fill="#868585" transform="translate(223,294)"/>
</svg>
